<svg xmlns="http://www.w3.org/2000/svg" width="170.098" height="71.429" viewBox="0 0 170.098 71.429"><defs><style>.a{fill:#606060;}.b{fill:#689f38;}.c{fill:#aed581;}.d{fill:#8bc34a;}.e{fill:#e64a19;}.f{fill:#ff8a65;}.g{fill:#ff5722;}</style></defs><g transform="translate(-378.289 -283.128)"><g transform="translate(450.944 327.996)"><path class="a" d="M314.83,700.2l4.1-4.1H298.253V710.8H313.6v6.516H302.038l-3.785,4.1H314.83l2.867-2.867V706.7H302.355v-6.5Z" transform="translate(-298.253 -694.861)"/><path class="a" d="M413.049,735.682h-8.871V720.3l-4.1,4.1v15.379h14.138l2.937-2.207V721.538h-4.1Z" transform="translate(-375.495 -713.224)"/><path class="a" d="M498.671,696.1l-4.1,4.076v21.249h14.208l2.867-2.867V703.175H498.671Zm0,21.223V707.276h8.871v10.042Z" transform="translate(-447.177 -694.861)"/><path class="a" d="M603.387,735.682h-8.871V720.3l-4.1,4.1v15.379h14.138l2.937-2.207V721.538h-4.1Z" transform="translate(-519.884 -713.224)"/><path class="a" d="M684.906,695.081v22.458h4.1v-26.56Z" transform="translate(-591.566 -690.979)"/></g><g transform="translate(378.289 283.128)"><path class="b" d="M537.027,427.076l-9.165,14.282v14.286l23.451-28.568Z" transform="translate(-493.962 -384.215)"/><path class="c" d="M514.93,427.076l-14.282,14.282v14.286l28.568-28.568Z" transform="translate(-471.864 -384.215)"/><path class="d" d="M514.93,365.367h14.286l-14.283-14.29-14.285.008Z" transform="translate(-471.864 -322.506)"/><path class="e" d="M361.853,227.7l9.165-14.282V199.13L347.567,227.7Z" transform="translate(-347.567 -199.13)"/><path class="f" d="M361.853,227.7l14.282-14.282V199.13L347.567,227.7Z" transform="translate(-347.567 -199.13)"/><path class="g" d="M361.853,351.066H347.567l14.283,14.29,14.285-.008Z" transform="translate(-347.567 -322.498)"/></g></g></svg>